<svg width="132" height="60" viewBox="0 0 132 60" fill="none" xmlns="http://www.w3.org/2000/svg">
<path d="M15.2625 0.369003C15.9109 0.369003 16.5343 0.393603 17.1329 0.442803C17.7314 0.492003 18.3299 0.565804 18.9285 0.664207C20.8238 0.959409 22.4947 1.82042 23.9411 3.24723C25.1382 4.52644 26.1108 6.00246 26.8589 7.67527C27.657 9.29889 28.2805 11.0209 28.7293 12.8413C29.1782 14.6617 29.5024 16.5314 29.702 18.4502C29.9015 20.3198 30.0511 22.1402 30.1509 23.9114C30.2506 26.1747 30.2755 28.4379 30.2257 30.7011C30.1758 32.9643 30.0262 35.203 29.7768 37.417C29.5274 39.7294 29.1533 42.0664 28.6545 44.428C28.2056 46.7405 27.3577 48.8315 26.1108 50.7011C25.0634 52.2755 23.7666 53.5793 22.2204 54.6125C20.6742 55.5966 19.0531 56.2608 17.3573 56.6052C15.8111 56.9004 14.24 56.9496 12.6439 56.7528C11.0478 56.556 9.52657 56.0394 8.08013 55.203C6.73344 54.4157 5.58626 53.4317 4.63859 52.2509C3.7408 51.0701 2.94276 49.6925 2.24448 48.1181C1.24693 45.7565 0.673344 43.321 0.523712 40.8118C0.324203 38.7454 0.174571 36.679 0.0748159 34.6125C0.0249386 32.5461 0 30.4797 0 28.4133C0 26.9865 0 25.6089 0 24.2804C0.0498773 22.9028 0.149632 21.5252 0.299264 20.1476C0.399019 19.016 0.523712 17.909 0.673344 16.8266C0.822976 15.695 0.997547 14.5879 1.19706 13.5055C1.39657 12.6199 1.57114 11.7835 1.72077 10.9963C1.8704 10.2091 2.14473 9.39729 2.54374 8.56089C2.94276 7.72448 3.36672 6.93727 3.81562 6.19926C4.31439 5.46125 4.88798 4.79705 5.53638 4.20664C6.63369 3.12423 7.85568 2.28782 9.20237 1.69742C10.5491 1.10701 11.9456 0.713405 13.3921 0.516603C13.6913 0.467403 13.9906 0.442803 14.2899 0.442803C14.639 0.442803 14.9632 0.418203 15.2625 0.369003ZM42.1214 32.6199C41.4231 32.5215 40.5004 32.4723 39.3532 32.4723C38.206 32.4231 37.2833 32.3493 36.585 32.2509C34.8393 32.1525 33.5924 31.5129 32.8442 30.3321C32.0961 29.1513 31.9963 27.6261 32.545 25.7565C32.6447 25.3629 32.8442 24.9446 33.1435 24.5018C33.4926 24.059 33.8168 23.7146 34.1161 23.4686C34.8144 22.9766 35.5127 22.6568 36.211 22.5092C37.009 22.4108 37.9567 22.3862 39.054 22.4354C40.2011 22.4846 41.1987 22.46 42.0466 22.3616H42.2711V22.0664C42.2711 21.476 42.2711 21.0332 42.2711 20.738C42.3209 20.4428 42.3459 20.1722 42.3459 19.9262C42.3459 19.6802 42.3209 19.4096 42.2711 19.1144C42.2711 18.8192 42.2711 18.3518 42.2711 17.7122C42.2711 16.433 42.2461 15.1784 42.1962 13.9483C42.1962 12.6691 42.2212 11.4145 42.2711 10.1845V9.15129C42.2711 8.51168 42.2711 7.82288 42.2711 7.08487C42.3209 6.29766 42.3957 5.53505 42.4955 4.79705C42.5953 4.00984 42.7698 3.29643 43.0192 2.65682C43.2686 1.96802 43.6177 1.40221 44.0666 0.959406C44.8148 0.319802 45.6128 0 46.4607 0H46.6104C47.8074 0.0491999 48.7551 0.418203 49.4534 1.10701C50.2015 1.74662 50.7502 2.53382 51.0993 3.46863C51.4984 4.40344 51.7477 5.38745 51.8475 6.42066C51.9473 7.40467 51.9971 8.29028 51.9971 9.07749V53.3579C51.9971 53.4071 51.9971 53.6531 51.9971 54.0959C51.9971 54.4895 51.9473 54.9815 51.8475 55.572C51.7477 56.1624 51.5981 56.7528 51.3986 57.3432C51.1991 57.9336 50.8749 58.4256 50.426 58.8192C50.0769 59.1636 49.5781 59.4342 48.9297 59.631C48.2813 59.8278 47.6827 59.9262 47.1341 59.9262C45.937 59.9262 44.9894 59.5326 44.2911 58.7454C43.6427 58.0566 43.2437 57.3432 43.094 56.6052C42.9444 55.8672 42.8197 55.0799 42.7199 54.2435C42.7199 54.0959 42.695 53.9483 42.6451 53.8007C42.6451 53.6531 42.6451 53.4809 42.6451 53.2841C42.5454 52.4969 42.4955 51.6605 42.4955 50.7749C42.4955 49.8893 42.4706 49.0037 42.4207 48.1181C42.3708 47.5769 42.3459 47.0603 42.3459 46.5683C42.3459 46.0271 42.3459 45.4859 42.3459 44.9446V43.2472C42.3459 42.7552 42.3459 42.1156 42.3459 41.3284C42.3459 40.492 42.3209 39.631 42.2711 38.7454C42.2711 37.8598 42.2711 37.0234 42.2711 36.2362C42.2711 35.449 42.2711 34.7847 42.2711 34.2435C42.2711 33.9975 42.2711 33.7269 42.2711 33.4317C42.2711 33.1365 42.2212 32.8659 42.1214 32.6199ZM15.038 46.7897C15.9857 46.7897 16.9084 46.4945 17.8062 45.9041C18.6541 45.3137 19.2527 44.5264 19.6018 43.5424C19.9509 42.5584 20.2502 41.476 20.4996 40.2952C20.8986 38.032 21.1231 35.6212 21.1729 33.0627C21.2228 30.5043 21.1979 28.0443 21.0981 25.6827C21.0981 24.7478 21.0732 23.7638 21.0233 22.7306C20.9734 21.6482 20.8737 20.5904 20.724 19.5572C20.6243 18.524 20.4497 17.54 20.2003 16.6052C19.9509 15.6212 19.6018 14.7601 19.1529 14.0221C18.6541 13.1857 18.0556 12.5461 17.3573 12.1033C16.659 11.6605 15.9109 11.4883 15.1128 11.5867C14.2649 11.6851 13.4918 11.9803 12.7935 12.4723C12.0953 12.9643 11.5217 13.7023 11.0728 14.6863L10.3994 16.2362C10.1002 17.171 9.87571 18.155 9.72608 19.1882C9.57645 20.1722 9.45176 21.1562 9.352 22.1402C9.25225 23.1242 9.17743 24.1328 9.12755 25.166C9.07768 26.1993 9.05274 27.2079 9.05274 28.1919C9.10262 29.1759 9.07768 30.1353 8.97792 31.0701C8.92804 32.0049 8.95298 32.9643 9.05274 33.9483C9.15249 35.2276 9.27719 36.6052 9.42682 38.0812C9.62633 39.5572 9.92559 40.9594 10.3246 42.2878C10.7236 43.567 11.2972 44.6494 12.0454 45.5351C12.7935 46.3715 13.7911 46.7897 15.038 46.7897Z" fill="black"/>
<path d="M105.515 47.9705C105.665 48.2165 105.789 48.4871 105.889 48.7823C106.039 49.0283 106.164 49.3235 106.263 49.6679C106.413 50.2091 106.513 50.7995 106.563 51.4391C106.612 52.0787 106.463 52.7429 106.114 53.4317C105.316 54.9569 104.218 55.7688 102.822 55.8672H102.747C101.849 55.8672 101.051 55.572 100.353 54.9816C99.7044 54.3911 99.0061 53.6777 98.258 52.8413C97.5098 52.0541 96.8115 51.2423 96.1631 50.4059C95.5147 49.5695 94.9411 48.8315 94.4424 48.1919C94.3925 48.0935 94.3177 47.9951 94.2179 47.8967C94.168 47.7491 94.0932 47.5769 93.9935 47.3801C92.7465 45.5105 91.8238 44.2312 91.2253 43.5424C90.6267 42.8536 90.2776 42.4846 90.1778 42.4354C90.0781 42.5338 89.8287 42.8044 89.4297 43.2472C89.0805 43.6408 88.8561 43.8868 88.7563 43.9852C88.6566 44.1328 88.5568 44.2804 88.4571 44.428C88.3573 44.5264 88.2576 44.6248 88.1578 44.7232C87.7089 45.2152 87.3348 45.7319 87.0356 46.2731C86.7862 46.7651 86.462 47.2817 86.063 47.8229C85.6639 48.3641 85.24 48.8807 84.7911 49.3727C84.3921 49.8647 83.9681 50.3567 83.5192 50.8487C83.3197 51.0455 83.1202 51.2915 82.9207 51.5867C82.1725 52.4231 81.3745 53.2349 80.5266 54.0221C79.7285 54.8093 78.7809 55.3998 77.6836 55.7934C77.2347 55.9902 76.7359 56.0886 76.1872 56.0886C75.0401 56.0886 74.0176 55.6458 73.1198 54.7601C72.2719 53.9237 71.8479 52.8905 71.8479 51.6605C71.8978 50.7749 72.1222 49.9385 72.5213 49.1513C72.9702 48.3641 73.3941 47.6261 73.7931 46.9373L73.9428 46.6421C74.0924 46.3961 74.242 46.1747 74.3917 45.9779C74.5413 45.7811 74.6909 45.5843 74.8406 45.3875C74.9403 45.2399 75.0151 45.1168 75.065 45.0184C75.1648 44.8708 75.2645 44.7478 75.3643 44.6494C75.9628 43.7638 76.4865 43.0504 76.9354 42.5092C77.0352 42.4108 77.085 42.337 77.085 42.2878C77.1349 42.1894 77.2097 42.091 77.3095 41.9926C77.4092 41.7958 77.509 41.6728 77.6088 41.6236L77.7584 41.4022C77.9579 41.1562 78.1325 40.9348 78.2821 40.738C78.4317 40.492 78.5814 40.246 78.731 40C79.0801 39.4588 79.3794 38.9668 79.6288 38.524C79.928 38.032 80.2024 37.5646 80.4518 37.1218C80.751 36.5806 81.0503 36.064 81.3496 35.572C81.6488 35.0307 81.998 34.5141 82.397 34.0221C82.6464 33.6285 82.8958 33.2349 83.1451 32.8413C83.4444 32.4477 83.7187 32.0541 83.9681 31.6605L84.2674 31.2177C84.6165 30.6765 84.8659 30.2091 85.0155 29.8155C85.215 29.3727 85.3397 28.8807 85.3896 28.3395C85.4894 27.5523 85.5392 26.7897 85.5392 26.0517C85.5392 25.2644 85.5392 24.428 85.5392 23.5424V9.9631C85.5392 9.47109 85.5392 9.00369 85.5392 8.56089C85.5392 8.11808 85.5642 7.65068 85.6141 7.15867C85.6141 6.61746 85.6639 6.07626 85.7637 5.53505C85.8635 4.99385 85.9882 4.50184 86.1378 4.05904C86.3872 3.41943 86.7114 2.77983 87.1104 2.14022C87.3598 1.74662 87.7089 1.45141 88.1578 1.25461C88.6566 1.05781 89.1803 0.910206 89.7289 0.811806L89.8786 0.738007C90.7265 0.492004 91.6243 0.541204 92.572 0.885606C93.0707 1.08241 93.4448 1.30381 93.6942 1.54981C93.9436 1.74662 94.1431 2.01722 94.2927 2.36162C94.4424 2.70602 94.592 3.07503 94.7416 3.46863C95.1905 4.40344 95.4898 5.60885 95.6394 7.08487C95.7392 8.11808 95.814 9.27429 95.8639 10.5535C95.9137 11.7835 95.9636 13.0381 96.0135 14.3173C96.0634 15.5966 96.0883 16.8758 96.0883 18.155C96.0883 19.385 96.0883 20.5166 96.0883 21.5498C96.1382 22.829 96.1631 24.1082 96.1631 25.3875C96.1631 26.6175 96.213 27.8475 96.3128 29.0775C96.3626 30.1599 96.612 31.1685 97.0609 32.1033C97.5597 33.0381 98.0834 33.9729 98.6321 34.9077C99.1807 35.9902 99.7044 37.0726 100.203 38.155C100.752 39.1882 101.35 40.2214 101.999 41.2546C102.248 41.7466 102.498 42.2386 102.747 42.7306C103.046 43.1734 103.345 43.6408 103.645 44.1328C103.744 44.3788 103.844 44.6002 103.944 44.797C104.094 44.9938 104.218 45.1907 104.318 45.3875C104.418 45.6335 104.543 45.9041 104.692 46.1993C104.842 46.4453 104.966 46.6913 105.066 46.9373L105.291 47.5277L105.515 47.9705ZM125.491 23.0996C125.74 23.0996 125.965 23.1242 126.164 23.1734C126.414 23.2226 126.663 23.2472 126.913 23.2472C127.162 23.2964 127.436 23.3456 127.735 23.3948C128.035 23.3948 128.334 23.4194 128.633 23.4686C129.182 23.567 129.731 23.7638 130.279 24.059C130.828 24.305 131.227 24.6986 131.476 25.2399C131.825 25.7811 132 26.4207 132 27.1587C132 27.5523 131.975 27.9213 131.925 28.2657C131.925 28.5609 131.875 28.9053 131.776 29.2989C131.676 29.6925 131.551 30.1107 131.401 30.5535C131.302 30.9963 131.077 31.3407 130.728 31.5867C130.03 32.0787 129.356 32.3985 128.708 32.5461C127.91 32.6445 126.937 32.6691 125.79 32.6199C124.643 32.5707 123.67 32.5707 122.872 32.6199C122.823 32.6199 122.773 32.6445 122.723 32.6937H122.648L122.573 32.7675V32.9889C122.573 33.5793 122.573 34.2927 122.573 35.1291C122.573 35.9164 122.573 36.7528 122.573 37.6384C122.573 38.4748 122.573 39.3112 122.573 40.1476C122.573 40.9348 122.573 41.6482 122.573 42.2878C122.673 44.8462 122.673 47.3555 122.573 49.8155V50.8487C122.573 51.4883 122.548 52.2017 122.498 52.9889C122.498 53.7269 122.448 54.4649 122.349 55.203C122.249 55.941 122.074 56.6544 121.825 57.3432C121.576 57.9828 121.226 58.524 120.778 58.9668C120.179 59.6556 119.381 60 118.383 60C118.383 60 118.334 59.9754 118.234 59.9262C117.037 59.877 116.064 59.5326 115.316 58.893C114.618 58.2534 114.069 57.4662 113.67 56.5314C113.321 55.5966 113.096 54.6371 112.997 53.6531C112.897 52.6199 112.847 51.7097 112.847 50.9225V7.08487C112.847 7.03567 112.847 6.81427 112.847 6.42066C112.847 5.97786 112.897 5.48585 112.997 4.94465C113.096 4.35424 113.246 3.76383 113.446 3.17343C113.695 2.53382 114.019 2.01722 114.418 1.62361C114.767 1.27921 115.266 1.03321 115.915 0.885606C116.613 0.688804 117.236 0.590403 117.785 0.590403C118.882 0.590403 119.805 0.959407 120.553 1.69742C121.251 2.38622 121.65 3.12423 121.75 3.91144C121.9 4.64944 122.025 5.43665 122.124 6.27306C122.174 6.46986 122.199 6.76507 122.199 7.15867C122.299 7.99508 122.349 8.85609 122.349 9.74169C122.399 10.6273 122.448 11.5129 122.498 12.3985C122.498 12.9397 122.498 13.4809 122.498 14.0221C122.548 14.5141 122.573 15.0307 122.573 15.572C122.523 15.8672 122.498 16.1624 122.498 16.4576C122.548 16.7036 122.573 16.9496 122.573 17.1956V21.3284C122.573 21.5744 122.573 21.845 122.573 22.1402C122.573 22.4354 122.623 22.706 122.723 22.952C122.723 23.0012 122.972 23.0258 123.471 23.0258C123.97 23.0258 124.244 23.0258 124.294 23.0258C124.743 23.1242 125.092 23.1488 125.341 23.0996H125.491Z" fill="black"/>
</svg>
