<svg width="152" height="24" viewBox="0 0 152 24" fill="none" xmlns="http://www.w3.org/2000/svg">
<g clip-path="url(#clip0_17_4)">
<path d="M18.6531 23.3866L12.0002 19.2235L5.34726 23.3866C5.10557 23.5397 4.79381 23.5281 4.56107 23.3591C4.32899 23.1909 4.22254 22.8984 4.29257 22.6203L6.19593 15.0061L0.251619 9.96615C0.0318691 9.78212 -0.053959 9.48273 0.0346348 9.21015C0.123229 8.93687 0.369041 8.74529 0.654697 8.72537L8.41317 8.18359L11.3479 0.904461C11.5635 0.372992 12.4369 0.372992 12.6525 0.904461L15.5872 8.18359L23.3457 8.72537C23.6313 8.74529 23.8771 8.93687 23.9657 9.21015C24.0543 9.48273 23.9685 9.78212 23.7487 9.96615L17.8044 15.0061L19.7077 22.6204C19.7778 22.8985 19.6714 23.191 19.4392 23.3592C19.2017 23.5317 18.8909 23.5356 18.6531 23.3866V23.3866Z" fill="#4C956C"/>
</g>
<g clip-path="url(#clip1_17_4)">
<path d="M50.6531 23.3866L44.0002 19.2235L37.3473 23.3866C37.1056 23.5397 36.7938 23.5281 36.5611 23.3591C36.329 23.1909 36.2225 22.8984 36.2926 22.6203L38.1959 15.0061L32.2516 9.96615C32.0319 9.78212 31.946 9.48273 32.0346 9.21015C32.1232 8.93687 32.369 8.74529 32.6547 8.72537L40.4132 8.18359L43.3479 0.904461C43.5635 0.372992 44.4369 0.372992 44.6525 0.904461L47.5872 8.18359L55.3457 8.72537C55.6313 8.74529 55.8771 8.93687 55.9657 9.21015C56.0543 9.48273 55.9685 9.78212 55.7488 9.96615L49.8044 15.0061L51.7078 22.6204C51.7778 22.8985 51.6714 23.191 51.4393 23.3592C51.2017 23.5317 50.8909 23.5356 50.6531 23.3866V23.3866Z" fill="#4C956C"/>
</g>
<g clip-path="url(#clip2_17_4)">
<path d="M82.6531 23.3866L76.0002 19.2235L69.3473 23.3866C69.1056 23.5397 68.7938 23.5281 68.5611 23.3591C68.329 23.1909 68.2225 22.8984 68.2926 22.6203L70.1959 15.0061L64.2516 9.96615C64.0319 9.78212 63.946 9.48273 64.0346 9.21015C64.1232 8.93687 64.369 8.74529 64.6547 8.72537L72.4132 8.18359L75.3479 0.904461C75.5635 0.372992 76.4369 0.372992 76.6525 0.904461L79.5872 8.18359L87.3457 8.72537C87.6313 8.74529 87.8771 8.93687 87.9657 9.21015C88.0543 9.48273 87.9685 9.78212 87.7488 9.96615L81.8044 15.0061L83.7078 22.6204C83.7778 22.8985 83.6714 23.191 83.4393 23.3592C83.2017 23.5317 82.8909 23.5356 82.6531 23.3866V23.3866Z" fill="#4C956C"/>
</g>
<g clip-path="url(#clip3_17_4)">
<path d="M114.653 23.3866L108 19.2235L101.347 23.3866C101.106 23.5397 100.794 23.5281 100.561 23.3591C100.329 23.1909 100.223 22.8984 100.293 22.6203L102.196 15.0061L96.2516 9.96615C96.0319 9.78212 95.946 9.48273 96.0346 9.21015C96.1232 8.93687 96.369 8.74529 96.6547 8.72537L104.413 8.18359L107.348 0.904461C107.564 0.372992 108.437 0.372992 108.653 0.904461L111.587 8.18359L119.346 8.72537C119.631 8.74529 119.877 8.93687 119.966 9.21015C120.054 9.48273 119.969 9.78212 119.749 9.96615L113.804 15.0061L115.708 22.6204C115.778 22.8985 115.671 23.191 115.439 23.3592C115.202 23.5317 114.891 23.5356 114.653 23.3866V23.3866Z" fill="#4C956C"/>
</g>
<g clip-path="url(#clip4_17_4)">
<path d="M146.653 23.3866L140 19.2235L133.347 23.3866C133.106 23.5397 132.794 23.5281 132.561 23.3591C132.329 23.1909 132.223 22.8984 132.293 22.6203L134.196 15.0061L128.252 9.96615C128.032 9.78212 127.946 9.48273 128.035 9.21015C128.123 8.93687 128.369 8.74529 128.655 8.72537L136.413 8.18359L139.348 0.904461C139.564 0.372992 140.437 0.372992 140.653 0.904461L143.587 8.18359L151.346 8.72537C151.631 8.74529 151.877 8.93687 151.966 9.21015C152.054 9.48273 151.969 9.78212 151.749 9.96615L145.804 15.0061L147.708 22.6204C147.778 22.8985 147.671 23.191 147.439 23.3592C147.202 23.5317 146.891 23.5356 146.653 23.3866V23.3866Z" fill="#4C956C"/>
</g>
<defs>
<clipPath id="clip0_17_4">
<rect width="24" height="24" fill="white"/>
</clipPath>
<clipPath id="clip1_17_4">
<rect width="24" height="24" fill="white" transform="translate(32)"/>
</clipPath>
<clipPath id="clip2_17_4">
<rect width="24" height="24" fill="white" transform="translate(64)"/>
</clipPath>
<clipPath id="clip3_17_4">
<rect width="24" height="24" fill="white" transform="translate(96)"/>
</clipPath>
<clipPath id="clip4_17_4">
<rect width="24" height="24" fill="white" transform="translate(128)"/>
</clipPath>
</defs>
</svg>
